<svg width="56" height="46" viewBox="0 0 56 46" fill="none" xmlns="http://www.w3.org/2000/svg">
<g filter="url(#filter0_d_76_466)">
<rect x="15" y="1" width="36" height="31" rx="7" stroke="#FE7A00" stroke-width="2" shape-rendering="crispEdges"/>
</g>
<path d="M36.9809 41.9258C37.0292 42.3143 36.9857 42.7075 36.8539 43.08C36.7222 43.4522 36.505 43.795 36.2164 44.0858C35.9271 44.376 35.573 44.6077 35.1779 44.765C34.7825 44.9226 34.3547 45.0026 33.9229 44.9996H4.07706C3.64518 45.0026 3.21753 44.9226 2.82222 44.765C2.42692 44.6077 2.07293 44.376 1.78358 44.0858C1.495 43.795 1.2777 43.4522 1.14593 43.08C1.01416 42.7075 0.970924 42.3143 1.01909 41.9258L3.71011 20.0771H34.2898L36.9809 41.9258Z" stroke="black" stroke-width="1.71429" stroke-linecap="round" stroke-linejoin="round"/>
<path d="M11.3555 20.0766V15.9229C11.3555 14.0868 12.1609 12.326 13.5946 11.0277C15.0283 9.72937 16.9728 9 19.0004 9C21.028 9 22.9725 9.72937 24.4062 11.0277C25.8399 12.326 26.6453 14.0868 26.6453 15.9229V20.0766" stroke="black" stroke-width="1.71429" stroke-linecap="round" stroke-linejoin="round"/>
<defs>
<filter id="filter0_d_76_466" x="10" y="0" width="46" height="41" filterUnits="userSpaceOnUse" color-interpolation-filters="sRGB">
<feFlood flood-opacity="0" result="BackgroundImageFix"/>
<feColorMatrix in="SourceAlpha" type="matrix" values="0 0 0 0 0 0 0 0 0 0 0 0 0 0 0 0 0 0 127 0" result="hardAlpha"/>
<feOffset dy="4"/>
<feGaussianBlur stdDeviation="2"/>
<feComposite in2="hardAlpha" operator="out"/>
<feColorMatrix type="matrix" values="0 0 0 0 0 0 0 0 0 0 0 0 0 0 0 0 0 0 0.25 0"/>
<feBlend mode="normal" in2="BackgroundImageFix" result="effect1_dropShadow_76_466"/>
<feBlend mode="normal" in="SourceGraphic" in2="effect1_dropShadow_76_466" result="shape"/>
</filter>
</defs>
</svg>
